<svg width="596" height="387" viewBox="0 0 596 387" fill="none" xmlns="http://www.w3.org/2000/svg">
<rect x="2" y="65" width="152" height="320" rx="16" fill="#D9D9D9"/>
<rect x="2" y="65" width="152" height="320" rx="16" fill="url(#paint0_linear_4_52)" fill-opacity="0.2"/>
<rect x="2" y="65" width="152" height="320" rx="16" stroke="black" stroke-width="3"/>
<ellipse cx="42.5" cy="175" rx="20.5" ry="21" fill="#517BD5"/>
<path d="M93 168L144.095 263.25H41.9045L93 168Z" fill="#517BD5"/>
<path d="M42.5 182L75.842 245.75H9.15802L42.5 182Z" fill="#D9D9D9"/>
<path d="M42.5 182L75.842 245.75H9.15802L42.5 182Z" fill="url(#paint1_linear_4_52)" fill-opacity="0.2"/>
<rect x="51" y="372" width="60" height="2" rx="1" fill="black"/>
<rect x="100" y="322" width="496" height="16" rx="8" fill="black"/>
<rect x="117" y="2" width="462" height="320" rx="16" fill="#D9D9D9"/>
<rect x="117" y="2" width="462" height="320" rx="16" fill="url(#paint2_linear_4_52)" fill-opacity="0.2"/>
<rect x="117" y="2" width="462" height="320" rx="16" stroke="black" stroke-width="4"/>
<circle cx="264" cy="79" r="47" fill="#517BD5"/>
<path d="M384 65L500.047 281H267.953L384 65Z" fill="#517BD5"/>
<path d="M264 97L339.344 241.75H188.656L264 97Z" fill="#D9D9D9"/>
<path d="M264 97L339.344 241.75H188.656L264 97Z" fill="url(#paint3_linear_4_52)" fill-opacity="0.2"/>
<defs>
<linearGradient id="paint0_linear_4_52" x1="2" y1="225" x2="154" y2="225" gradientUnits="userSpaceOnUse">
<stop stop-color="#FFAEC9"/>
<stop offset="1" stop-color="#AAC4FF"/>
</linearGradient>
<linearGradient id="paint1_linear_4_52" x1="4" y1="224.5" x2="81" y2="224.5" gradientUnits="userSpaceOnUse">
<stop stop-color="#FFAEC9"/>
<stop offset="1" stop-color="#AAC4FF"/>
</linearGradient>
<linearGradient id="paint2_linear_4_52" x1="117" y1="162" x2="579" y2="162" gradientUnits="userSpaceOnUse">
<stop stop-color="#FFAEC9"/>
<stop offset="1" stop-color="#AAC4FF"/>
</linearGradient>
<linearGradient id="paint3_linear_4_52" x1="177" y1="193.5" x2="351" y2="193.5" gradientUnits="userSpaceOnUse">
<stop stop-color="#FFAEC9"/>
<stop offset="1" stop-color="#AAC4FF"/>
</linearGradient>
</defs>
</svg>
